<svg version="1.0" xmlns="http://www.w3.org/2000/svg" width="64.000000pt" height="64.000000pt" viewBox="0 0 64.000000 64.000000" preserveAspectRatio="xMidYMid meet">
  <g transform="translate(0.000000,64.000000) scale(0.100000,-0.100000)" fill="#000000" stroke="none">
    <path d="M255 550 c-10 -11 -23 -20 -30 -20 -18 0 -45 -34 -45 -56 0 -11 -10
-24 -22 -29 -22 -10 -23 -15 -22 -120 1 -127 12 -234 27 -253 10 -13 190 -18
221 -6 11 4 16 19 16 47 0 33 11 59 55 128 30 48 55 95 55 105 0 41 -34 59
-74 39 l-26 -14 0 68 c0 68 -10 91 -40 91 -9 0 -25 9 -35 20 -10 11 -28 20
-40 20 -12 0 -30 -9 -40 -20z m55 -111 c0 -71 2 -80 18 -77 14 3 18 16 20 66
5 98 22 73 22 -32 0 -58 4 -97 11 -102 6 -3 26 9 45 27 58 56 47 25 -21 -57
-35 -43 -65 -84 -65 -91 0 -8 -21 -13 -57 -15 -44 -2 -58 -7 -58 -18 0 -10 13
-16 43 -18 64 -5 51 -22 -17 -22 l-59 0 -6 53 c-3 28 -8 97 -10 152 -2 55 -1
79 1 53 3 -40 8 -48 24 -48 17 0 19 7 19 85 0 98 18 116 22 23 2 -48 7 -63 18
-63 12 0 16 16 18 75 3 84 7 104 22 95 5 -3 10 -42 10 -86z" />
  </g>
</svg>