<?xml version="1.0" encoding="UTF-8"?>
<!DOCTYPE score-partwise PUBLIC "-//Recordare//DTD MusicXML 2.0 Partwise//EN"
  "http://www.musicxml.org/dtds/partwise.dtd">
<score-partwise version="2.0"><work>
                  <work-title>Fur Elise</work-title>
                </work><identification>
                  <creator type="composer">Beethoven, arr. Michael Fein</creator>
                  <creator type="lyricist"></creator>
                  <rights></rights>
                  <encoding>
                    <software>Noteflight version 0.3.2</software>
                    <encoding-date>2016-06-07</encoding-date>
                    <supports attribute="new-system" element="print" type="no" value="no"/>
                    <supports attribute="new-page" element="print" type="no" value="no"/>
                  </encoding>
                </identification><defaults>
                    <scaling>
                        <millimeters>2.1166666679999997</millimeters>
                        <tenths>10</tenths>
                    </scaling>
                    <page-layout>
                        <page-height>1320</page-height>
                        <page-width>1020</page-width>
                        <page-margins type="both">
                            <left-margin>59.583333333333336</left-margin>
                            <right-margin>56.66666666666667</right-margin>
                            <top-margin>96.66666666666667</top-margin>
                            <bottom-margin>80</bottom-margin>
                        </page-margins>
                    </page-layout>
                    <system-layout>
                        <system-margins>
                            <left-margin>59.583333333333336</left-margin>
                            <right-margin>26.666666666666668</right-margin>
                        </system-margins>
                        <system-distance>92.5</system-distance>
                        <top-system-distance>145.83333333333334</top-system-distance>
                    </system-layout>
                    <staff-layout>
                      <staff-distance>55</staff-distance>
                    </staff-layout>
                </defaults><credit page="1">
                      <credit-words font-size="24" default-x="510" default-y="1260" justify="center" valign="top">Fur Elise</credit-words>
                    </credit><credit page="1">
                      <credit-words font-size="12" default-x="918" default-y="1210" justify="right" valign="top">Beethoven, arr. Michael Fein</credit-words>
                  </credit><part-list><score-part id="P1">
                        <part-name>Piano</part-name>
                        <part-abbreviation>Pno</part-abbreviation>
                        <score-instrument id="P1I1">
                            <instrument-name>Piano</instrument-name>
                            <instrument-sound>keyboard.piano</instrument-sound>
                        </score-instrument>
                        <midi-instrument id="P1I1">
                            <midi-channel>1</midi-channel>
                            <midi-program>1</midi-program>
                        </midi-instrument>
                    </score-part></part-list><part id="P1"><measure number="1"><attributes><divisions>64</divisions><key>
                    <fifths>0</fifths>
                    <mode>major</mode>
                </key><time print-object="yes">
                    <beats>3</beats>
                    <beat-type>4</beat-type>
                </time><clef number="1">
                    <sign>G</sign>
                    <line>2</line>
                </clef></attributes><direction placement="above">
                <direction-type>
                  <metronome>
                    <beat-unit>quarter</beat-unit>
                    <per-minute>120</per-minute>
                  </metronome>
                </direction-type>
                <sound tempo="120"/>
              </direction><direction placement="above">
                <direction-type>
                  <metronome>
                    <beat-unit>quarter</beat-unit>
                    <per-minute>120</per-minute>
                  </metronome>
                </direction-type>
                <sound tempo="120"/>
              </direction><note><pitch><step>E</step><octave>5</octave></pitch><duration>32</duration><voice>1</voice><type>eighth</type><beam number="1">begin</beam></note><note><pitch><step>D</step><alter>1</alter><octave>5</octave></pitch><duration>32</duration><voice>1</voice><type>eighth</type><accidental>sharp</accidental><beam number="1">end</beam></note></measure><measure number="2"><attributes><time print-object="yes">
                    <beats>3</beats>
                    <beat-type>4</beat-type>
                </time></attributes><note><pitch><step>E</step><octave>5</octave></pitch><duration>32</duration><voice>1</voice><type>eighth</type><beam number="1">begin</beam></note><note><pitch><step>D</step><alter>1</alter><octave>5</octave></pitch><duration>32</duration><voice>1</voice><type>eighth</type><accidental>sharp</accidental><beam number="1">end</beam></note><note><pitch><step>E</step><octave>5</octave></pitch><duration>32</duration><voice>1</voice><type>eighth</type><beam number="1">begin</beam></note><note><pitch><step>B</step><octave>4</octave></pitch><duration>32</duration><voice>1</voice><type>eighth</type><beam number="1">end</beam></note><note><pitch><step>D</step><octave>5</octave></pitch><duration>32</duration><voice>1</voice><type>eighth</type><accidental>natural</accidental><beam number="1">begin</beam></note><note><pitch><step>C</step><octave>5</octave></pitch><duration>32</duration><voice>1</voice><type>eighth</type><beam number="1">end</beam></note></measure><measure number="3"><barline location="left"><repeat direction="forward"/></barline><attributes/><direction placement="above">
                <direction-type><words enclosure="rectangle">A</words></direction-type>
            </direction><note><pitch><step>A</step><octave>4</octave></pitch><duration>96</duration><voice>1</voice><type>quarter</type><dot/></note><harmony>
                    <root><root-step>A</root-step></root>
                    <kind text="m">minor</kind>
                </harmony><note><pitch><step>C</step><octave>4</octave></pitch><duration>32</duration><voice>1</voice><type>eighth</type></note><note><pitch><step>E</step><octave>4</octave></pitch><duration>32</duration><voice>1</voice><type>eighth</type><beam number="1">begin</beam></note><note><pitch><step>A</step><octave>4</octave></pitch><duration>32</duration><voice>1</voice><type>eighth</type><beam number="1">end</beam></note></measure><measure number="4"><attributes/><harmony>
                    <root><root-step>E</root-step></root>
                    <kind text="7">dominant</kind>
                </harmony><note><pitch><step>B</step><octave>4</octave></pitch><duration>96</duration><voice>1</voice><type>quarter</type><dot/></note><note><pitch><step>E</step><octave>4</octave></pitch><duration>32</duration><voice>1</voice><type>eighth</type></note><note><pitch><step>G</step><alter>1</alter><octave>4</octave></pitch><duration>32</duration><voice>1</voice><type>eighth</type><accidental>sharp</accidental><beam number="1">begin</beam></note><note><pitch><step>B</step><octave>4</octave></pitch><duration>32</duration><voice>1</voice><type>eighth</type><beam number="1">end</beam></note></measure><measure number="5"><attributes/><harmony>
                    <root><root-step>A</root-step></root>
                    <kind text="m">minor</kind>
                </harmony><note><pitch><step>C</step><octave>5</octave></pitch><duration>96</duration><voice>1</voice><type>quarter</type><dot/></note><note><pitch><step>E</step><octave>4</octave></pitch><duration>32</duration><voice>1</voice><type>eighth</type></note><note><pitch><step>E</step><octave>5</octave></pitch><duration>32</duration><voice>1</voice><type>eighth</type><beam number="1">begin</beam></note><note><pitch><step>D</step><alter>1</alter><octave>5</octave></pitch><duration>32</duration><voice>1</voice><type>eighth</type><accidental>sharp</accidental><beam number="1">end</beam></note></measure><measure number="6"><attributes/><harmony>
                    <root><root-step>E</root-step></root>
                    <kind text="7">dominant</kind>
                </harmony><note><pitch><step>E</step><octave>5</octave></pitch><duration>32</duration><voice>1</voice><type>eighth</type><beam number="1">begin</beam></note><note><pitch><step>D</step><alter>1</alter><octave>5</octave></pitch><duration>32</duration><voice>1</voice><type>eighth</type><accidental>sharp</accidental><beam number="1">end</beam></note><note><pitch><step>E</step><octave>5</octave></pitch><duration>32</duration><voice>1</voice><type>eighth</type><beam number="1">begin</beam></note><note><pitch><step>B</step><octave>4</octave></pitch><duration>32</duration><voice>1</voice><type>eighth</type><beam number="1">end</beam></note><note><pitch><step>D</step><octave>5</octave></pitch><duration>32</duration><voice>1</voice><type>eighth</type><accidental>natural</accidental><beam number="1">begin</beam></note><note><pitch><step>C</step><octave>5</octave></pitch><duration>32</duration><voice>1</voice><type>eighth</type><beam number="1">end</beam></note></measure><measure number="7"><attributes/><harmony>
                    <root><root-step>A</root-step></root>
                    <kind text="m">minor</kind>
                </harmony><note><pitch><step>A</step><octave>4</octave></pitch><duration>96</duration><voice>1</voice><type>quarter</type><dot/></note><note><pitch><step>C</step><octave>4</octave></pitch><duration>32</duration><voice>1</voice><type>eighth</type></note><note><pitch><step>E</step><octave>4</octave></pitch><duration>32</duration><voice>1</voice><type>eighth</type><beam number="1">begin</beam></note><note><pitch><step>A</step><octave>4</octave></pitch><duration>32</duration><voice>1</voice><type>eighth</type><beam number="1">end</beam></note></measure><measure number="8"><attributes/><harmony>
                    <root><root-step>E</root-step></root>
                    <kind text="7">dominant</kind>
                </harmony><note><pitch><step>B</step><octave>4</octave></pitch><duration>96</duration><voice>1</voice><type>quarter</type><dot/></note><note><pitch><step>E</step><octave>4</octave></pitch><duration>32</duration><voice>1</voice><type>eighth</type></note><note><pitch><step>C</step><octave>5</octave></pitch><duration>32</duration><voice>1</voice><type>eighth</type><beam number="1">begin</beam></note><note><pitch><step>B</step><octave>4</octave></pitch><duration>32</duration><voice>1</voice><type>eighth</type><beam number="1">end</beam></note></measure><measure number="9"><attributes/><note><pitch><step>A</step><octave>4</octave></pitch><duration>64</duration><voice>1</voice><type>quarter</type></note><harmony>
                    <root><root-step>A</root-step></root>
                    <kind text="m">minor</kind>
                </harmony><note>
                    <rest/>
                    <duration>64</duration>
                    <voice>1</voice>
                    <type>quarter</type>
                </note><note><pitch><step>E</step><octave>5</octave></pitch><duration>32</duration><voice>1</voice><type>eighth</type><beam number="1">begin</beam></note><note><pitch><step>D</step><alter>1</alter><octave>5</octave></pitch><duration>32</duration><voice>1</voice><type>eighth</type><accidental>sharp</accidental><beam number="1">end</beam></note></measure><measure number="10"><attributes/><harmony>
                    <root><root-step>E</root-step></root>
                    <kind text="7">dominant</kind>
                </harmony><note><pitch><step>E</step><octave>5</octave></pitch><duration>32</duration><voice>1</voice><type>eighth</type><beam number="1">begin</beam></note><note><pitch><step>D</step><alter>1</alter><octave>5</octave></pitch><duration>32</duration><voice>1</voice><type>eighth</type><accidental>sharp</accidental><beam number="1">end</beam></note><note><pitch><step>E</step><octave>5</octave></pitch><duration>32</duration><voice>1</voice><type>eighth</type><beam number="1">begin</beam></note><note><pitch><step>B</step><octave>4</octave></pitch><duration>32</duration><voice>1</voice><type>eighth</type><beam number="1">end</beam></note><note><pitch><step>D</step><octave>5</octave></pitch><duration>32</duration><voice>1</voice><type>eighth</type><accidental>natural</accidental><beam number="1">begin</beam></note><note><pitch><step>C</step><octave>5</octave></pitch><duration>32</duration><voice>1</voice><type>eighth</type><beam number="1">end</beam></note><barline location="right"><repeat direction="backward"/></barline></measure><measure number="11"><attributes/><harmony>
                    <root><root-step>A</root-step></root>
                    <kind text="m">minor</kind>
                </harmony><note><pitch><step>A</step><octave>4</octave></pitch><duration>192</duration><voice>1</voice><type>half</type><dot/></note></measure><measure number="12"><print new-system="yes"/><attributes/><note><pitch><step>A</step><octave>4</octave></pitch><duration>64</duration><voice>1</voice><type>quarter</type></note><note>
                    <rest/>
                    <duration>32</duration>
                    <voice>1</voice>
                    <type>eighth</type>
                </note><note><pitch><step>B</step><octave>4</octave></pitch><duration>32</duration><voice>1</voice><type>eighth</type></note><note><pitch><step>C</step><octave>5</octave></pitch><duration>32</duration><voice>1</voice><type>eighth</type><beam number="1">begin</beam></note><note><pitch><step>D</step><octave>5</octave></pitch><duration>32</duration><voice>1</voice><type>eighth</type><beam number="1">end</beam></note><barline location="right"><bar-style>light-light</bar-style></barline></measure><measure number="13"><attributes/><direction placement="above">
                <direction-type><words enclosure="rectangle">B</words></direction-type>
            </direction><harmony>
                    <root><root-step>C</root-step></root>
                    <kind text="maj7">major-seventh</kind>
                </harmony><note><pitch><step>E</step><octave>5</octave></pitch><duration>96</duration><voice>1</voice><type>quarter</type><dot/></note><note><pitch><step>G</step><octave>4</octave></pitch><duration>32</duration><voice>1</voice><type>eighth</type></note><note><pitch><step>F</step><octave>5</octave></pitch><duration>32</duration><voice>1</voice><type>eighth</type><beam number="1">begin</beam></note><note><pitch><step>E</step><octave>5</octave></pitch><duration>32</duration><voice>1</voice><type>eighth</type><beam number="1">end</beam></note></measure><measure number="14"><attributes/><harmony>
                    <root><root-step>G</root-step></root>
                    <kind text="6">major-sixth</kind>
                </harmony><note><pitch><step>D</step><octave>5</octave></pitch><duration>96</duration><voice>1</voice><type>quarter</type><dot/></note><note><pitch><step>F</step><octave>4</octave></pitch><duration>32</duration><voice>1</voice><type>eighth</type></note><note><pitch><step>E</step><octave>5</octave></pitch><duration>32</duration><voice>1</voice><type>eighth</type><beam number="1">begin</beam></note><note><pitch><step>D</step><octave>5</octave></pitch><duration>32</duration><voice>1</voice><type>eighth</type><beam number="1">end</beam></note></measure><measure number="15"><attributes/><harmony>
                    <root><root-step>A</root-step></root>
                    <kind text="m7">minor-seventh</kind>
                </harmony><note><pitch><step>C</step><octave>5</octave></pitch><duration>96</duration><voice>1</voice><type>quarter</type><dot/></note><note><pitch><step>E</step><octave>4</octave></pitch><duration>32</duration><voice>1</voice><type>eighth</type></note><note><pitch><step>D</step><octave>5</octave></pitch><duration>32</duration><voice>1</voice><type>eighth</type><beam number="1">begin</beam></note><note><pitch><step>C</step><octave>5</octave></pitch><duration>32</duration><voice>1</voice><type>eighth</type><beam number="1">end</beam></note></measure><measure number="16"><attributes/><harmony>
                    <root><root-step>E</root-step></root>
                    <kind text="7">dominant</kind>
                </harmony><note><pitch><step>B</step><octave>4</octave></pitch><duration>32</duration><voice>1</voice><type>eighth</type><beam number="1">begin</beam></note><note><pitch><step>E</step><octave>5</octave></pitch><duration>32</duration><voice>1</voice><type>eighth</type><beam number="1">end</beam></note><note><pitch><step>E</step><octave>4</octave></pitch><duration>32</duration><voice>1</voice><type>eighth</type><beam number="1">begin</beam></note><note><pitch><step>E</step><octave>4</octave></pitch><duration>32</duration><voice>1</voice><type>eighth</type><beam number="1">end</beam></note><note><pitch><step>E</step><octave>5</octave></pitch><duration>32</duration><voice>1</voice><type>eighth</type><beam number="1">begin</beam></note><note><pitch><step>E</step><octave>4</octave></pitch><duration>32</duration><voice>1</voice><type>eighth</type><beam number="1">end</beam></note></measure><measure number="17"><attributes/><harmony>
                    <root><root-step>F</root-step></root>
                    <kind text="maj7">major-seventh</kind>
                </harmony><note><pitch><step>E</step><octave>5</octave></pitch><duration>32</duration><voice>1</voice><type>eighth</type><beam number="1">begin</beam></note><note><pitch><step>E</step><octave>5</octave></pitch><duration>32</duration><voice>1</voice><type>eighth</type><beam number="1">end</beam></note><note><pitch><step>E</step><octave>6</octave></pitch><duration>32</duration><voice>1</voice><type>eighth</type><beam number="1">begin</beam></note><note><pitch><step>D</step><alter>1</alter><octave>5</octave></pitch><duration>32</duration><voice>1</voice><type>eighth</type><accidental>sharp</accidental><beam number="1">end</beam></note><note><pitch><step>E</step><octave>5</octave></pitch><duration>32</duration><voice>1</voice><type>eighth</type><beam number="1">begin</beam></note><note><pitch><step>D</step><alter>1</alter><octave>5</octave></pitch><duration>32</duration><voice>1</voice><type>eighth</type><beam number="1">end</beam></note></measure><measure number="18"><attributes/><harmony>
                    <root><root-step>E</root-step></root>
                    <kind text="7">dominant</kind>
                </harmony><note><pitch><step>B</step><octave>4</octave></pitch><duration>32</duration><voice>1</voice><type>eighth</type><beam number="1">begin</beam></note><note><pitch><step>E</step><octave>5</octave></pitch><duration>32</duration><voice>1</voice><type>eighth</type><beam number="1">end</beam></note><note><pitch><step>E</step><octave>4</octave></pitch><duration>32</duration><voice>1</voice><type>eighth</type><beam number="1">begin</beam></note><note><pitch><step>E</step><octave>4</octave></pitch><duration>32</duration><voice>1</voice><type>eighth</type><beam number="1">end</beam></note><note><pitch><step>E</step><octave>5</octave></pitch><duration>32</duration><voice>1</voice><type>eighth</type><beam number="1">begin</beam></note><note><pitch><step>E</step><octave>4</octave></pitch><duration>32</duration><voice>1</voice><type>eighth</type><beam number="1">end</beam></note></measure><measure number="19"><attributes/><harmony>
                    <root><root-step>F</root-step></root>
                    <kind text="maj7">major-seventh</kind>
                </harmony><note><pitch><step>E</step><octave>5</octave></pitch><duration>32</duration><voice>1</voice><type>eighth</type><beam number="1">begin</beam></note><note><pitch><step>E</step><octave>5</octave></pitch><duration>32</duration><voice>1</voice><type>eighth</type><beam number="1">end</beam></note><note><pitch><step>E</step><octave>6</octave></pitch><duration>32</duration><voice>1</voice><type>eighth</type><beam number="1">begin</beam></note><note><pitch><step>D</step><alter>1</alter><octave>5</octave></pitch><duration>32</duration><voice>1</voice><type>eighth</type><accidental>sharp</accidental><beam number="1">end</beam></note><note><pitch><step>E</step><octave>5</octave></pitch><duration>32</duration><voice>1</voice><type>eighth</type><beam number="1">begin</beam></note><note><pitch><step>D</step><alter>1</alter><octave>5</octave></pitch><duration>32</duration><voice>1</voice><type>eighth</type><beam number="1">end</beam></note></measure><measure number="20"><print new-system="yes"/><attributes/><harmony>
                    <root><root-step>E</root-step></root>
                    <kind text="7">dominant</kind>
                </harmony><note><pitch><step>E</step><octave>5</octave></pitch><duration>32</duration><voice>1</voice><type>eighth</type><beam number="1">begin</beam></note><note><pitch><step>D</step><alter>1</alter><octave>5</octave></pitch><duration>32</duration><voice>1</voice><type>eighth</type><accidental>sharp</accidental><beam number="1">end</beam></note><note><pitch><step>E</step><octave>5</octave></pitch><duration>32</duration><voice>1</voice><type>eighth</type><beam number="1">begin</beam></note><note><pitch><step>B</step><octave>4</octave></pitch><duration>32</duration><voice>1</voice><type>eighth</type><beam number="1">end</beam></note><note><pitch><step>D</step><octave>5</octave></pitch><duration>32</duration><voice>1</voice><type>eighth</type><accidental>natural</accidental><beam number="1">begin</beam></note><note><pitch><step>C</step><octave>5</octave></pitch><duration>32</duration><voice>1</voice><type>eighth</type><beam number="1">end</beam></note><barline location="right"><bar-style>light-light</bar-style></barline></measure><measure number="21"><attributes/><direction placement="above">
                <direction-type><words enclosure="rectangle">C</words></direction-type>
            </direction><harmony>
                    <root><root-step>A</root-step></root>
                    <kind text="m">minor</kind>
                </harmony><note><pitch><step>A</step><octave>4</octave></pitch><duration>96</duration><voice>1</voice><type>quarter</type><dot/></note><note><pitch><step>C</step><octave>4</octave></pitch><duration>32</duration><voice>1</voice><type>eighth</type></note><note><pitch><step>E</step><octave>4</octave></pitch><duration>32</duration><voice>1</voice><type>eighth</type><beam number="1">begin</beam></note><note><pitch><step>A</step><octave>4</octave></pitch><duration>32</duration><voice>1</voice><type>eighth</type><beam number="1">end</beam></note></measure><measure number="22"><attributes/><harmony>
                    <root><root-step>E</root-step></root>
                    <kind text="7">dominant</kind>
                </harmony><note><pitch><step>B</step><octave>4</octave></pitch><duration>96</duration><voice>1</voice><type>quarter</type><dot/></note><note><pitch><step>E</step><octave>4</octave></pitch><duration>32</duration><voice>1</voice><type>eighth</type></note><note><pitch><step>G</step><alter>1</alter><octave>4</octave></pitch><duration>32</duration><voice>1</voice><type>eighth</type><accidental>sharp</accidental><beam number="1">begin</beam></note><note><pitch><step>B</step><octave>4</octave></pitch><duration>32</duration><voice>1</voice><type>eighth</type><beam number="1">end</beam></note></measure><measure number="23"><attributes/><harmony>
                    <root><root-step>A</root-step></root>
                    <kind text="m">minor</kind>
                </harmony><note><pitch><step>C</step><octave>5</octave></pitch><duration>96</duration><voice>1</voice><type>quarter</type><dot/></note><note><pitch><step>E</step><octave>4</octave></pitch><duration>32</duration><voice>1</voice><type>eighth</type></note><note><pitch><step>E</step><octave>5</octave></pitch><duration>32</duration><voice>1</voice><type>eighth</type><beam number="1">begin</beam></note><note><pitch><step>D</step><alter>1</alter><octave>5</octave></pitch><duration>32</duration><voice>1</voice><type>eighth</type><accidental>sharp</accidental><beam number="1">end</beam></note></measure><measure number="24"><attributes/><harmony>
                    <root><root-step>E</root-step></root>
                    <kind text="7">dominant</kind>
                </harmony><note><pitch><step>E</step><octave>5</octave></pitch><duration>32</duration><voice>1</voice><type>eighth</type><beam number="1">begin</beam></note><note><pitch><step>D</step><alter>1</alter><octave>5</octave></pitch><duration>32</duration><voice>1</voice><type>eighth</type><accidental>sharp</accidental><beam number="1">end</beam></note><note><pitch><step>E</step><octave>5</octave></pitch><duration>32</duration><voice>1</voice><type>eighth</type><beam number="1">begin</beam></note><note><pitch><step>B</step><octave>4</octave></pitch><duration>32</duration><voice>1</voice><type>eighth</type><beam number="1">end</beam></note><note><pitch><step>D</step><octave>5</octave></pitch><duration>32</duration><voice>1</voice><type>eighth</type><accidental>natural</accidental><beam number="1">begin</beam></note><note><pitch><step>C</step><octave>5</octave></pitch><duration>32</duration><voice>1</voice><type>eighth</type><beam number="1">end</beam></note></measure><measure number="25"><attributes/><harmony>
                    <root><root-step>A</root-step></root>
                    <kind text="m">minor</kind>
                </harmony><note><pitch><step>A</step><octave>4</octave></pitch><duration>96</duration><voice>1</voice><type>quarter</type><dot/></note><note><pitch><step>C</step><octave>4</octave></pitch><duration>32</duration><voice>1</voice><type>eighth</type></note><note><pitch><step>E</step><octave>4</octave></pitch><duration>32</duration><voice>1</voice><type>eighth</type><beam number="1">begin</beam></note><note><pitch><step>A</step><octave>4</octave></pitch><duration>32</duration><voice>1</voice><type>eighth</type><beam number="1">end</beam></note></measure><measure number="26"><attributes/><harmony>
                    <root><root-step>E</root-step></root>
                    <kind text="7">dominant</kind>
                </harmony><note><pitch><step>B</step><octave>4</octave></pitch><duration>96</duration><voice>1</voice><type>quarter</type><dot/></note><note><pitch><step>E</step><octave>4</octave></pitch><duration>32</duration><voice>1</voice><type>eighth</type></note><note><pitch><step>C</step><octave>5</octave></pitch><duration>32</duration><voice>1</voice><type>eighth</type><beam number="1">begin</beam></note><note><pitch><step>B</step><octave>4</octave></pitch><duration>32</duration><voice>1</voice><type>eighth</type><beam number="1">end</beam></note></measure><measure number="27"><attributes/><harmony>
                    <root><root-step>A</root-step></root>
                    <kind text="m">minor</kind>
                </harmony><note><pitch><step>A</step><octave>4</octave></pitch><duration>64</duration><voice>1</voice><type>quarter</type></note><note>
                    <rest/>
                    <duration>128</duration>
                    <voice>1</voice>
                    <type>half</type>
                </note></measure><measure number="28"><attributes/><harmony>
                    <root><root-step>E</root-step></root>
                    <kind text="7">dominant</kind>
                </harmony><note>
                        <rest/>
                        <duration>192</duration>
                        <voice>1</voice>
                        <type>whole</type>
                    </note><barline location="right"><bar-style>light-heavy</bar-style></barline></measure></part></score-partwise>